<svg width="80" height="80" xmlns="http://www.w3.org/2000/svg">

 <g>
  <title>background</title>
  <rect fill="none" id="canvas_background" height="402" width="582" y="-1" x="-1"/>
 </g>
 <g>
  <title>Layer 1</title>
  <g id="svg_1">
   <path id="svg_2" d="m40,0c22.091,0 40,17.909 40,40s-17.909,40 -40,40s-40,-17.909 -40,-40s17.909,-40 40,-40z" fill="#FFFFFF"/>
  </g>
  <g stroke="null" id="svg_9">
   <path stroke="null" id="svg_8" d="m58.556549,27.638496c-3.098632,0.046279 -5.644584,2.628629 -5.708006,5.794091c-0.045302,2.249144 1.132541,4.220615 2.899305,5.257258l0,10.421958c0,5.303537 -4.548284,9.625965 -10.147566,9.625965c-5.436196,0 -9.893877,-4.081779 -10.138506,-9.18169c6.595918,-1.38836 11.579098,-7.367566 11.579098,-14.512993l0,-14.383413c0,-1.055154 -0.733887,-1.971472 -1.748643,-2.175098l-5.698946,-1.166223c-1.177843,-0.240649 -2.319444,0.536833 -2.555012,1.740078l-0.28993,1.45315c-0.235569,1.203246 0.525499,2.369468 1.703342,2.610117l2.78152,0.5646l0,11.236463c0,4.896284 -3.823458,8.950296 -8.616371,8.996575c-4.838215,0.046279 -8.779457,-3.952199 -8.779457,-8.885506l0,-11.338276l2.78152,-0.5646c1.177843,-0.240649 1.93891,-1.406872 1.703342,-2.610117l-0.28087,-1.45315c-0.235569,-1.203246 -1.37717,-1.980727 -2.555012,-1.740078l-5.689885,1.147711c-1.014757,0.212882 -1.748643,1.119944 -1.748643,2.184354l0,14.383413c0,7.154684 4.99224,13.143145 11.606279,14.512993c0.235569,8.367185 7.293563,15.105361 15.937116,15.105361c8.788517,0 15.946176,-6.978825 15.946176,-15.549636l0,-10.421958c1.730522,-1.027387 2.899305,-2.934068 2.899305,-5.127678c0,-3.304298 -2.645616,-5.969949 -5.880152,-5.923671zm0.081543,7.404589c-0.797309,0 -1.449652,-0.666413 -1.449652,-1.480918s0.652344,-1.480918 1.449652,-1.480918s1.449652,0.666413 1.449652,1.480918s-0.652344,1.480918 -1.449652,1.480918z" fill="#6D97AB"/>
  </g>
 </g>
</svg>